# xmcd
#
# Track frame offsets:
#	150
#	20689
#	38651
#	54966
#	77256
#	90552
#	106808
#	120576
#	139796
#	163998
#	194687
#	209213
#
# Disc length: 2894 seconds
#
# Revision: 1
# Processed by: cddbd v1.4PL0 Copyright (c) Steve Scherf et al.
# Submitted via: dBpowerAMP V4.0
#
DISCID=a00b4c0c
DTITLE=Charlie Daniels Band - Redneck Fiddlin' Man
DYEAR=2002
DGENRE=Country
TTITLE0=Rock This Joint
TTITLE1=Waco
TTITLE2=Little Joe And Big Bill
TTITLE3=The Last Fallen Hero
TTITLE4=Southern Boy (With Travis Tritt)
TTITLE5=High Speed Heroes
TTITLE6=Fais Do Do
TTITLE7=Muddy Mississippi
TTITLE8=Redneck Fiddlin' Man
TTITLE9=Crosstown Traffic
TTITLE10=My Baby Plays Me Just Like A Fiddle
TTITLE11=Star Spangled Banner
EXTD=
EXTT0=
EXTT1=
EXTT2=
EXTT3=
EXTT4=
EXTT5=
EXTT6=
EXTT7=
EXTT8=
EXTT9=
EXTT10=
EXTT11=
PLAYORDER=
